<?xml version="1.0" standalone="no"?>
<!DOCTYPE svg PUBLIC "-//W3C//DTD SVG 20010904//EN"
 "http://www.w3.org/TR/2001/REC-SVG-20010904/DTD/svg10.dtd">
<svg version="1.0" xmlns="http://www.w3.org/2000/svg"
 width="1024.000000pt" height="1024.000000pt" viewBox="0 0 1024.000000 1024.000000"
 preserveAspectRatio="xMidYMid meet">

<g transform="translate(0.000000,1024.000000) scale(0.100000,-0.100000)"
fill="#000000" stroke="none">
<path d="M4810 9083 c-921 -88 -1795 -503 -2494 -1183 -358 -348 -613 -694
-826 -1120 -195 -389 -334 -889 -374 -1345 -39 -442 -27 -733 44 -1105 64
-333 205 -718 382 -1044 506 -933 1397 -1695 2353 -2011 551 -183 1222 -233
1860 -140 326 48 721 171 1030 321 545 265 1041 648 1421 1099 179 212 390
537 499 769 276 585 395 1119 395 1770 0 407 -44 712 -157 1096 -166 568 -500
1132 -943 1594 -361 376 -757 672 -1190 891 -301 151 -476 218 -774 295 -350
90 -598 121 -955 118 -130 0 -252 -3 -271 -5z m730 -97 c623 -88 1170 -298
1680 -644 113 -77 268 -190 296 -216 6 -6 24 -22 40 -35 293 -245 569 -538
761 -811 464 -658 704 -1392 705 -2160 1 -644 -123 -1202 -387 -1747 -256
-529 -621 -977 -1095 -1347 -629 -490 -1298 -769 -2020 -842 -202 -20 -707
-15 -885 9 -711 97 -1264 328 -1850 772 -442 335 -871 820 -1125 1273 -271
484 -428 976 -471 1480 -15 180 -7 627 15 804 43 348 150 751 279 1048 334
772 938 1442 1722 1910 90 53 403 207 519 255 315 129 664 217 1026 260 156
19 631 13 790 -9z"/>
<path d="M4767 8919 c-456 -46 -875 -167 -1297 -372 -378 -185 -779 -474
-1095 -791 -490 -491 -801 -1012 -981 -1639 -114 -397 -148 -645 -148 -1082 0
-430 37 -672 161 -1060 118 -368 302 -729 537 -1055 204 -282 537 -632 774
-814 15 -11 29 -23 32 -26 3 -3 48 -38 100 -76 567 -421 1151 -656 1840 -741
201 -24 689 -24 874 0 519 69 950 211 1407 462 106 58 181 104 334 204 43 27
180 130 255 190 513 410 911 953 1140 1556 152 401 227 770 250 1233 50 1012
-302 1958 -1019 2737 -178 194 -478 453 -702 608 -512 352 -1074 571 -1679
653 -145 19 -640 28 -783 13z m753 -48 c288 -43 409 -68 619 -132 240 -73 588
-224 776 -336 160 -96 252 -156 405 -265 104 -73 449 -375 509 -445 19 -21 57
-63 85 -93 240 -257 483 -613 642 -945 159 -332 274 -725 329 -1125 34 -252
29 -696 -11 -995 -69 -502 -255 -1023 -521 -1457 -279 -455 -681 -864 -1143
-1163 -259 -168 -448 -266 -710 -370 -289 -115 -554 -187 -850 -232 -204 -30
-609 -42 -820 -24 -570 50 -1068 202 -1527 467 -162 93 -332 204 -427 279 -21
17 -66 52 -99 78 -118 92 -148 118 -297 262 -188 182 -358 378 -513 593 -314
433 -538 955 -631 1462 -40 224 -50 342 -50 600 0 361 31 619 113 945 169 673
495 1241 1005 1751 467 467 1001 799 1596 992 293 96 461 130 815 166 78 8
631 -3 705 -13z"/>
<path d="M4874 8262 c-68 -20 -59 -16 -394 -214 -391 -232 -779 -467 -1175
-713 -104 -65 -206 -127 -225 -138 -19 -12 -93 -58 -165 -102 -71 -45 -172
-103 -223 -130 -129 -66 -169 -107 -236 -240 -79 -159 -81 -175 -67 -564 6
-179 16 -488 21 -686 6 -198 15 -484 20 -635 5 -151 12 -426 15 -610 4 -184
11 -357 16 -385 14 -71 74 -187 127 -247 40 -43 222 -174 489 -348 29 -19 113
-76 185 -127 133 -91 223 -154 478 -328 74 -51 194 -133 265 -183 218 -152
745 -503 831 -553 207 -120 359 -129 551 -34 80 39 674 428 875 572 36 27 140
100 230 163 89 63 170 120 178 127 34 27 444 324 555 402 287 202 317 231 376
356 61 130 66 169 73 561 4 193 11 457 16 585 14 350 28 711 46 1234 18 520
17 539 -39 674 -63 152 -104 194 -295 299 -142 78 -440 254 -697 413 -236 146
-1148 693 -1270 762 -154 87 -196 99 -360 103 -113 3 -151 0 -201 -14z m266
-72 c38 -6 98 -26 145 -50 136 -66 214 -165 229 -290 8 -61 34 -128 59 -148 9
-8 49 -18 89 -24 41 -6 111 -27 158 -47 78 -34 297 -158 510 -291 111 -69 408
-243 459 -269 70 -36 161 -24 183 24 14 31 -3 55 -40 55 -33 0 -74 23 -607
343 -777 467 -758 454 -796 508 l-22 32 49 -29 c27 -15 119 -70 204 -122 369
-224 682 -412 686 -412 2 0 35 -20 72 -44 103 -67 458 -284 542 -331 218 -122
348 -200 374 -224 54 -50 71 -132 41 -194 -21 -42 -64 -74 -365 -267 -140 -90
-298 -191 -350 -225 -109 -71 -136 -88 -556 -353 -468 -296 -780 -484 -913
-550 -61 -30 -88 -37 -149 -41 -41 -2 -93 2 -116 9 -48 13 -168 80 -351 195
-71 45 -249 153 -395 240 -399 239 -477 285 -835 503 -181 110 -413 250 -515
312 -204 123 -245 156 -262 211 -27 92 22 157 192 253 100 56 280 166 675 411
99 62 227 141 285 175 58 35 164 99 235 143 72 44 189 114 260 157 72 42 166
99 210 127 44 27 86 53 94 58 8 5 0 -10 -19 -33 -40 -50 -92 -85 -385 -261
-209 -125 -487 -294 -702 -427 -142 -87 -213 -129 -259 -152 -56 -29 -69 -46
-49 -66 9 -9 28 -19 43 -22 15 -3 32 -7 38 -9 43 -13 245 100 784 435 183 115
255 150 351 174 151 37 164 49 184 165 22 122 55 177 155 255 115 91 229 119
380 96z m530 -372 c0 -4 -15 -8 -34 -8 -35 0 -52 12 -42 29 7 11 76 -8 76 -21z
m-1130 7 c0 -10 -10 -15 -29 -15 -36 0 -50 17 -19 23 42 8 48 7 48 -8z m-49
-75 c11 0 19 -4 19 -9 0 -4 -42 -11 -92 -15 -91 -7 -95 -8 -208 -73 -63 -36
-158 -93 -210 -126 -52 -33 -189 -116 -305 -185 -115 -68 -229 -137 -253 -153
-60 -41 -98 -59 -106 -52 -8 9 42 42 289 190 116 70 246 150 290 178 97 63
223 137 330 196 80 43 144 61 199 53 16 -2 37 -4 47 -4z m1288 -11 c38 -8 267
-128 372 -195 21 -13 41 -24 43 -24 4 0 62 -35 226 -137 36 -22 117 -70 180
-108 226 -133 262 -157 252 -167 -7 -7 -33 4 -79 35 -37 24 -147 91 -243 147
-96 56 -182 108 -191 116 -8 8 -19 14 -23 14 -3 0 -35 17 -69 39 -155 96 -341
203 -394 227 -38 17 -89 29 -148 35 -49 4 -91 9 -92 9 -2 0 -3 5 -3 10 0 13
112 13 169 -1z m-2983 -1259 c76 -47 148 -90 159 -96 11 -6 66 -39 123 -73 57
-33 107 -61 112 -61 5 0 10 -3 12 -8 2 -4 86 -57 188 -118 102 -62 271 -163
375 -226 105 -63 269 -161 365 -218 96 -56 202 -119 235 -140 323 -201 375
-229 540 -285 275 -94 454 -47 894 235 217 139 397 254 414 265 23 13 401 254
507 323 47 30 101 65 120 77 96 60 202 126 263 163 153 95 205 127 260 161
126 78 199 134 217 164 19 31 20 31 20 7 0 -35 -32 -83 -77 -116 -49 -36 -63
-49 -38 -36 44 23 91 65 112 99 l22 37 11 -30 c39 -101 40 -133 25 -554 -39
-1084 -46 -1277 -55 -1710 -6 -256 -15 -487 -21 -515 -14 -67 -81 -202 -125
-253 -21 -25 -70 -60 -122 -89 -48 -25 -102 -58 -120 -71 -20 -16 -51 -27 -80
-29 -43 -4 -50 -2 -80 29 -18 19 -41 56 -50 81 l-18 47 -51 -73 c-152 -218
-394 -430 -608 -532 -111 -54 -192 -75 -283 -75 -55 0 -75 4 -96 21 -14 11
-26 24 -26 28 0 5 44 11 98 13 312 18 627 234 873 599 241 358 428 821 484
1194 20 131 22 339 5 450 -24 159 -89 323 -171 430 -24 31 -63 88 -85 126 -78
132 -120 176 -202 218 l-52 26 97 55 c54 30 151 90 216 132 120 78 206 118
255 118 43 0 87 -34 112 -85 19 -40 22 -62 22 -158 0 -62 -5 -137 -11 -167
-24 -120 -122 -267 -209 -312 l-33 -18 25 -33 c33 -43 81 -189 102 -307 21
-124 14 -417 -14 -565 -28 -145 -97 -379 -137 -464 -19 -40 -35 -77 -35 -82 0
-5 12 -4 26 1 42 16 116 12 150 -9 19 -12 42 -40 57 -72 l25 -53 6 200 c6 185
16 433 48 1214 7 168 13 420 13 560 0 254 0 255 -25 300 -36 64 -83 93 -142
87 -65 -6 -141 -45 -358 -186 -102 -65 -264 -167 -360 -226 -96 -59 -230 -141
-297 -183 -67 -42 -186 -117 -265 -166 -79 -49 -190 -120 -248 -156 -179 -113
-208 -127 -291 -138 -65 -8 -87 -16 -140 -53 -96 -64 -189 -163 -231 -244 -74
-146 -69 -27 -66 -1446 l4 -1274 22 -40 c23 -40 88 -95 114 -95 32 -1 -43 -30
-106 -40 -82 -14 -150 -4 -235 36 l-56 27 41 9 c43 9 93 51 126 103 17 29 18
84 18 1293 0 1204 -1 1265 -19 1315 -75 211 -289 407 -445 407 -53 0 -59 3
-153 61 -32 20 -143 89 -248 154 -165 103 -379 230 -835 495 -168 98 -405 236
-480 280 -95 56 -156 80 -206 80 -53 0 -88 -16 -129 -60 l-30 -32 3 -311 c1
-172 7 -454 12 -627 5 -173 13 -516 16 -762 l7 -447 28 39 c68 94 173 92 265
-6 l41 -43 -58 172 c-112 331 -143 507 -137 771 4 163 7 189 32 266 34 104 69
176 103 211 l25 27 -54 18 c-91 30 -204 165 -243 291 -20 62 -37 244 -29 306
8 61 39 106 92 136 68 37 112 21 353 -127 64 -39 160 -94 213 -123 l97 -51
-49 -23 c-82 -38 -129 -88 -152 -161 -28 -93 -45 -121 -120 -199 -53 -56 -74
-88 -103 -156 -104 -244 -121 -518 -52 -825 24 -104 161 -557 187 -619 52
-120 159 -316 215 -394 91 -127 239 -279 365 -377 242 -189 449 -277 655 -278
60 -1 102 -5 100 -10 -2 -6 -16 -19 -31 -30 -40 -30 -184 -28 -276 3 -268 91
-641 369 -882 657 l-51 61 -26 -50 c-30 -59 -75 -87 -136 -87 -50 0 -103 24
-211 95 -67 44 -92 67 -124 116 -83 129 -81 112 -96 684 -7 281 -20 751 -29
1045 -8 294 -16 659 -18 810 l-2 275 31 73 31 73 13 -30 c7 -17 18 -35 25 -41
8 -6 5 5 -6 27 -31 60 -23 62 34 8 30 -27 116 -88 193 -135z m609 -559 c15 -6
5 -13 -51 -35 -39 -14 -104 -46 -145 -71 -40 -24 -75 -42 -78 -39 -15 15 106
107 178 135 50 20 66 21 96 10z m3504 -35 c47 -32 93 -78 114 -112 13 -22 -22
-5 -78 38 -27 21 -76 51 -108 67 -31 15 -54 31 -50 34 17 18 74 5 122 -27z
m-3284 -113 c44 -23 89 -49 100 -57 18 -15 16 -15 -20 0 -181 74 -195 77 -318
77 -64 0 -115 2 -113 5 14 13 82 21 171 18 95 -2 104 -4 180 -43z m3245 27
c19 -6 12 -8 -32 -9 -74 -1 -190 -24 -256 -50 -29 -12 -57 -21 -63 -21 -38 0
74 64 138 79 47 11 180 12 213 1z m-220 -84 c0 -2 -7 -7 -16 -10 -8 -3 -12 -2
-9 4 6 10 25 14 25 6z m-3135 -56 c100 -28 239 -98 363 -182 122 -83 338 -290
416 -401 26 -37 94 -159 151 -271 56 -112 121 -235 143 -273 195 -334 264
-773 170 -1083 -30 -98 -81 -198 -136 -265 -168 -206 -412 -236 -707 -88 -237
119 -443 297 -620 533 -68 92 -170 258 -163 265 4 4 185 -110 238 -150 19 -15
85 -71 146 -126 187 -168 318 -246 458 -276 166 -34 319 51 367 205 21 67 23
222 4 313 -73 365 -357 795 -600 910 -82 39 -135 38 -236 -5 -15 -6 -17 18
-23 231 -4 131 -10 248 -13 260 -3 15 -15 23 -41 28 -61 11 -151 65 -197 118
l-43 50 -62 -6 c-106 -9 -120 -30 -120 -178 l0 -79 58 -29 c114 -58 106 -36
114 -303 8 -313 9 -573 2 -581 -4 -3 -27 4 -53 17 -43 22 -48 23 -76 9 -17 -8
-35 -21 -41 -29 -19 -24 -100 223 -128 386 -37 219 -28 422 25 602 74 249 155
350 324 404 63 20 199 17 280 -6z m3455 4 c110 -33 186 -107 256 -249 72 -149
89 -235 89 -465 0 -162 -4 -214 -23 -310 -71 -357 -239 -754 -452 -1070 -205
-301 -475 -514 -720 -566 -216 -46 -377 40 -485 258 -68 140 -96 260 -102 448
-11 319 64 609 258 1008 108 220 176 331 295 478 191 237 467 435 659 474 68
13 169 11 225 -6z m-4329 -98 c2 -236 19 -856 29 -1073 10 -209 10 -266 0
-278 -7 -8 -16 -13 -20 -10 -4 2 -10 127 -13 277 -4 150 -11 388 -16 528 -9
251 -15 566 -12 625 2 29 2 29 16 11 9 -12 15 -44 16 -80z m3869 74 c-14 -11
-29 -20 -35 -20 -5 0 4 9 20 20 38 25 48 25 15 0z m-137 -99 c-160 -126 -269
-239 -401 -416 -84 -113 -90 -120 -72 -85 43 84 231 303 353 412 82 73 188
157 200 158 5 0 -31 -31 -80 -69z m1134 -53 c-2 -24 -4 -5 -4 42 0 47 2 66 4
43 2 -24 2 -62 0 -85z m-4737 -11 c-5 -12 -20 -56 -32 -97 l-23 -75 -6 70 c-4
39 -7 96 -8 128 l-1 59 40 -32 c33 -26 38 -34 30 -53z m4705 -82 c10 -82 20
-202 21 -265 2 -109 1 -111 -6 -35 -12 128 -40 274 -67 354 l-25 74 23 18 c13
10 27 15 30 11 4 -4 14 -74 24 -157z m-3515 99 c118 -89 315 -293 373 -385 31
-48 12 -33 -33 27 -62 82 -243 267 -330 337 -116 93 -122 107 -10 21z m163
-38 c62 -40 202 -123 238 -142 14 -8 33 -22 42 -32 15 -16 14 -22 -6 -75 -12
-31 -25 -57 -28 -57 -3 0 -33 35 -67 78 -34 43 -102 119 -153 170 -50 51 -88
92 -85 92 3 0 30 -15 59 -34z m2047 8 c0 -3 -31 -39 -69 -80 -37 -41 -101
-117 -142 -169 -75 -95 -89 -107 -89 -80 0 22 -34 85 -59 112 l-21 22 27 17
c16 10 45 28 65 41 21 12 40 23 42 23 3 0 28 15 57 33 48 29 163 85 182 86 4
1 7 -2 7 -5z m-2986 -153 c79 -59 128 -80 189 -82 l54 -2 6 -141 c4 -78 7
-212 7 -298 0 -95 4 -158 10 -158 5 0 31 14 57 30 38 25 58 30 106 30 88 0
154 -36 257 -139 117 -117 193 -235 270 -414 113 -266 122 -517 21 -618 -87
-87 -235 -72 -404 41 -40 27 -147 117 -238 202 -134 124 -189 167 -285 224
l-119 71 -8 54 c-4 29 -15 61 -24 71 -25 28 -8 33 25 8 17 -12 49 -26 72 -30
35 -6 45 -4 69 16 52 43 55 75 47 525 -4 226 -11 420 -16 434 -5 13 -36 42
-68 64 -83 56 -92 67 -92 112 0 21 3 39 7 39 3 0 29 -17 57 -39z m1405 -102
c117 -67 241 -169 304 -252 22 -29 56 -86 76 -127 l36 -75 3 -1268 2 -1269
-35 -35 c-34 -34 -38 -35 -87 -30 -37 5 -73 20 -127 53 -112 69 -320 225 -347
259 -69 91 -99 201 -83 311 14 98 39 131 140 184 46 24 105 64 132 89 129 120
224 314 257 524 18 109 7 364 -20 482 -24 106 -65 234 -92 288 l-19 39 23 -8
c62 -22 134 9 176 76 15 23 14 23 -16 -4 -46 -43 -114 -47 -184 -12 -74 37
-92 54 -131 127 -56 104 -56 117 2 59 61 -61 119 -89 183 -90 88 0 135 68 125
184 -7 83 -38 168 -92 247 -56 82 -112 121 -181 127 -94 8 -140 -33 -164 -146
l-17 -77 -11 40 c-15 50 -15 178 -1 228 10 39 63 107 82 107 6 0 35 -14 66
-31z m1177 -11 c61 -73 88 -201 65 -309 -14 -64 -99 -252 -149 -326 -34 -52
-106 -114 -169 -146 -33 -18 -101 -23 -119 -9 -5 4 3 -5 18 -20 33 -33 71 -36
123 -11 19 9 37 14 40 11 3 -3 -8 -43 -25 -89 -134 -361 -130 -763 10 -1057
64 -134 132 -212 257 -296 84 -56 120 -144 110 -269 -13 -167 -67 -244 -272
-385 -168 -115 -234 -152 -267 -152 -33 0 -93 39 -123 79 l-25 35 0 1227 c0
1192 1 1229 20 1291 25 83 82 175 150 244 50 51 208 176 255 202 37 21 72 14
101 -20z m-1075 -219 c67 -23 119 -90 119 -153 0 -52 -8 -65 -52 -77 -58 -15
-117 -3 -128 26 -16 43 -23 170 -11 193 13 25 24 27 72 11z m-115 -207 c-14
-37 -26 -73 -26 -80 0 -21 -15 -13 -27 16 -61 148 -62 138 22 169 l50 19 3
-29 c2 -15 -8 -58 -22 -95z m205 -66 c-19 -23 -46 -24 -82 -5 l-34 18 64 1
c53 0 62 -2 52 -14z m2693 -430 c-4 -86 -11 -156 -15 -156 -8 0 -5 122 7 258
10 118 15 55 8 -102z m-4693 26 c24 -72 23 -83 -8 -71 -20 7 -23 16 -23 61 0
29 -3 64 -6 78 -10 45 14 0 37 -68z m4634 -77 c-6 -65 -8 -72 -26 -68 -25 7
-24 24 3 101 26 76 33 67 23 -33z m-4325 -833 c52 -32 120 -76 150 -98 30 -22
109 -76 175 -121 66 -44 170 -114 230 -156 61 -42 171 -118 245 -169 129 -88
316 -220 390 -275 30 -22 117 -123 107 -123 -2 0 -84 55 -183 123 -180 124
-243 168 -604 418 -107 74 -292 201 -411 281 -118 81 -221 153 -228 162 -30
36 37 14 129 -42z m4205 50 c-6 -5 -55 -40 -110 -79 -55 -38 -179 -127 -275
-198 -96 -71 -256 -187 -355 -257 -99 -71 -198 -142 -220 -158 -231 -166 -427
-300 -439 -300 -7 0 22 47 44 71 8 9 28 25 45 35 16 10 127 88 245 173 118 85
253 181 300 215 111 78 352 252 461 333 51 37 108 70 137 78 28 9 64 26 79 39
36 30 118 75 88 48z m-4111 -29 c70 -37 122 -72 256 -173 63 -47 248 -174 410
-282 340 -227 430 -294 442 -327 l8 -23 -27 17 c-16 10 -86 62 -158 115 -71
53 -182 132 -245 176 -63 43 -140 96 -170 117 -30 21 -176 120 -325 219 -312
209 -283 188 -261 188 10 0 41 -12 70 -27z m3824 -62 c9 -5 -7 -21 -55 -54
-37 -25 -105 -72 -149 -104 -45 -32 -131 -93 -190 -135 -60 -42 -140 -100
-179 -129 -38 -29 -114 -85 -168 -123 -54 -39 -121 -88 -150 -109 -29 -21 -78
-56 -111 -79 -53 -37 -57 -38 -51 -17 9 28 12 31 140 118 55 38 106 75 113 84
8 9 57 44 110 78 139 88 169 109 340 238 158 120 323 239 332 240 3 0 11 -3
18 -8z m-2762 -586 c7 -19 14 -37 14 -41 0 -10 -29 17 -51 48 l-20 28 21 0
c15 0 25 -11 36 -35z m1794 -27 c-57 -53 -72 -52 -45 6 16 34 18 35 90 44 6 1
-15 -22 -45 -50z"/>
<path d="M4936 8104 c-103 -33 -182 -103 -192 -170 -10 -66 3 -100 62 -164
l55 -59 -38 -6 c-196 -34 -266 -56 -418 -130 -156 -76 -226 -125 -335 -235
-181 -181 -246 -391 -181 -582 142 -420 818 -720 1428 -633 252 36 416 94 624
221 433 266 497 691 152 1004 -192 173 -439 285 -778 351 -51 10 -57 13 -41
23 126 76 161 149 115 243 -25 52 -67 88 -139 121 -71 32 -237 41 -314 16z
m94 -47 c0 -8 -10 -19 -22 -25 -21 -10 -21 -11 -3 -9 19 2 20 -5 23 -140 2
-134 1 -143 -16 -143 -12 0 -32 20 -54 53 -77 115 -85 153 -40 186 15 11 24
21 21 21 -3 0 -24 -14 -45 -31 l-39 -31 -3 27 c-4 31 18 59 68 86 42 22 110
25 110 6z m139 -48 c24 -9 31 -17 31 -37 0 -26 -29 -214 -33 -218 -1 -1 -12
-5 -24 -8 l-23 -7 0 140 c0 78 4 141 9 141 4 0 22 -5 40 -11z m111 -108 c0
-29 -52 -111 -71 -111 -6 0 -9 6 -6 14 3 8 11 51 18 96 l13 83 23 -27 c13 -15
23 -40 23 -55z m22 -241 c332 -57 600 -195 744 -381 58 -76 90 -147 104 -232
14 -92 1 -160 -51 -267 -76 -154 -259 -309 -464 -393 -182 -74 -352 -102 -588
-94 -187 6 -263 19 -424 72 -420 140 -655 441 -578 739 66 253 311 447 685
541 156 40 395 46 572 15z m917 -733 c2 -226 -167 -432 -484 -587 -191 -94
-385 -134 -640 -134 -316 0 -562 69 -802 223 -94 60 -224 191 -271 272 -51 90
-76 235 -52 309 6 18 8 5 9 -46 2 -172 105 -345 285 -480 120 -91 332 -182
507 -219 133 -28 320 -39 457 -26 311 29 523 109 733 277 157 125 257 328 243
489 -3 31 -2 35 5 20 5 -11 10 -55 10 -98z"/>
<path d="M4955 8010 c-3 -6 1 -7 9 -4 18 7 21 14 7 14 -6 0 -13 -4 -16 -10z"/>
<path d="M4875 7505 c-141 -29 -260 -92 -344 -180 -100 -105 -134 -253 -95
-415 37 -159 146 -261 349 -329 337 -112 783 -21 885 180 76 147 -59 319 -251
319 -48 0 -70 4 -79 16 -8 8 -33 27 -57 41 -39 22 -59 26 -156 30 -96 5 -120
2 -165 -15 l-53 -20 7 21 c21 72 70 117 130 119 31 2 45 -4 67 -26 28 -28 31
-29 106 -23 125 8 199 58 208 140 6 54 -15 100 -60 128 -26 16 -48 19 -122 18
-49 0 -137 1 -195 5 -73 4 -126 1 -175 -9z m413 -99 c20 -20 21 -23 6 -44 -18
-27 -47 -28 -141 -6 -243 57 -407 -106 -373 -372 14 -113 69 -200 162 -257 46
-28 156 -41 242 -28 131 19 212 74 235 158 15 51 13 69 -8 132 l-19 53 49 -4
c55 -6 114 -45 130 -86 41 -105 -56 -235 -209 -282 -149 -46 -311 -50 -464
-11 -135 35 -224 90 -283 176 -116 171 -68 402 108 516 107 69 209 90 407 82
121 -4 137 -7 158 -27z m-80 -363 c65 -52 86 -124 58 -198 -23 -60 -65 -85
-142 -85 -86 0 -122 22 -161 100 -35 68 -44 142 -20 173 27 36 69 48 150 44
68 -3 82 -7 115 -34z"/>
<path d="M3050 6968 c-130 -46 -220 -144 -220 -237 1 -186 300 -307 540 -219
219 81 285 261 143 389 -64 58 -138 81 -278 86 -106 3 -128 1 -185 -19z m284
-33 c82 -13 176 -80 176 -124 0 -10 -9 -5 -26 17 -43 54 -135 94 -228 100 -63
4 -82 2 -90 -10 -6 -8 -33 -25 -61 -37 -54 -24 -145 -79 -158 -96 -5 -5 -5 6
-2 25 4 19 16 44 28 54 39 34 126 68 195 76 67 7 92 7 166 -5z m-182 -222 c-2
-87 -8 -162 -12 -166 -13 -14 -75 50 -107 110 -60 115 -56 143 30 184 99 47
95 53 89 -128z m176 82 c4 -39 -71 -249 -89 -253 -12 -2 -13 19 -3 145 7 81
13 148 13 149 1 0 18 -2 39 -5 32 -5 37 -10 40 -36z m86 -27 c23 -33 20 -59
-15 -112 -30 -44 -95 -104 -104 -95 -8 9 80 229 92 229 6 0 19 -10 27 -22z"/>
<path d="M6788 6971 c-308 -80 -258 -399 73 -471 81 -18 230 -8 299 19 102 41
160 112 160 196 -1 197 -268 325 -532 256z m280 -45 c71 -19 139 -61 163 -99
29 -48 24 -48 -30 4 -61 59 -153 92 -256 93 -61 1 -70 -1 -67 -16 2 -12 -4
-18 -16 -18 -55 0 -172 -68 -172 -100 0 -6 -5 -8 -11 -4 -15 9 -2 54 23 81 23
24 77 53 123 64 52 12 188 9 243 -5z m-184 -78 c3 -18 8 -95 11 -170 6 -119 5
-138 -8 -138 -33 0 -167 201 -167 250 0 24 39 56 90 74 63 21 68 20 74 -16z
m140 -28 c23 -8 26 -15 25 -57 0 -27 -6 -86 -13 -133 -9 -67 -15 -85 -29 -88
-14 -3 -17 4 -17 36 0 21 -3 87 -7 145 -6 114 -6 115 41 97z m104 -56 c26 -18
27 -25 7 -92 -15 -48 -66 -122 -85 -122 -4 0 3 41 16 92 13 51 24 102 24 115
0 27 8 29 38 7z"/>
<path d="M3335 6420 c10 -11 46 -35 79 -53 34 -18 124 -72 201 -118 185 -113
565 -339 569 -339 3 0 65 -37 326 -196 30 -18 66 -35 80 -36 48 -6 26 25 -55
74 -335 204 -1065 638 -1122 667 -23 11 -54 21 -69 21 -27 0 -27 0 -9 -20z"/>
<path d="M6745 6396 c-34 -15 -128 -74 -415 -257 -107 -69 -233 -149 -280
-178 -151 -93 -377 -236 -402 -253 -18 -13 -21 -19 -11 -29 15 -16 52 0 158
68 39 24 154 97 257 161 103 64 247 155 320 202 194 123 252 160 356 225 50
33 92 63 92 67 0 12 -41 9 -75 -6z"/>
<path d="M4954 5989 c-136 -47 -221 -150 -210 -258 7 -75 47 -137 116 -179 78
-46 110 -54 243 -59 102 -4 127 -2 185 16 89 29 154 77 182 136 32 66 26 166
-14 223 -61 89 -166 133 -331 139 -92 3 -120 0 -171 -18z m274 -34 c105 -25
168 -70 187 -133 5 -18 -3 -12 -35 22 -51 55 -123 92 -216 110 -50 10 -59 14
-34 15 19 0 64 -6 98 -14z m-165 -2 c-7 -2 -13 -13 -13 -24 0 -11 -7 -19 -17
-19 -33 0 -139 -57 -166 -89 -31 -37 -37 -20 -12 32 18 38 67 74 127 92 40 13
108 20 81 8z m-13 -233 c0 -109 -4 -170 -10 -170 -21 0 -102 86 -126 132 -34
67 -32 122 5 157 28 27 77 48 114 50 16 1 17 -13 17 -169z m138 130 c40 -1 41
-11 22 -140 -26 -171 -26 -170 -55 -170 l-25 0 0 153 c0 85 3 157 7 161 4 3
13 4 21 1 7 -3 21 -5 30 -5z m124 -67 c56 -53 23 -154 -64 -199 -31 -16 -31
-16 -24 8 3 12 13 61 21 108 24 128 22 126 67 83z"/>
<path d="M7338 6416 c-59 -39 -144 -93 -188 -121 -279 -173 -356 -222 -547
-344 -293 -188 -533 -340 -601 -379 -31 -19 -86 -53 -122 -76 -36 -24 -81 -52
-100 -64 -19 -12 -31 -22 -26 -22 8 0 267 152 391 230 33 20 134 84 225 140
91 57 176 111 190 121 14 9 95 61 180 114 241 152 694 447 715 466 28 27 -22
-1 -117 -65z"/>
<path d="M2685 6149 c-134 -118 3 -475 193 -504 54 -8 99 13 132 62 22 32 25
47 25 127 0 78 -4 99 -27 148 -33 71 -110 155 -163 179 -63 29 -118 25 -160
-12z m115 -175 c0 -45 -3 -85 -7 -87 -17 -10 -53 14 -60 40 -20 78 4 147 48
136 17 -5 19 -15 19 -89z m81 59 c39 -33 68 -95 69 -145 0 -34 -3 -38 -25 -38
-34 0 -82 25 -95 49 -5 11 -10 51 -10 90 0 81 9 88 61 44z m28 -226 c28 -7 27
-26 -2 -23 -30 4 -57 19 -85 49 l-24 25 45 -22 c24 -13 54 -26 66 -29z"/>
<path d="M7323 6150 c-88 -45 -156 -153 -176 -280 -9 -58 -8 -79 8 -135 27
-100 73 -119 173 -69 134 67 229 293 174 416 -35 79 -104 106 -179 68z m81
-122 c20 -28 20 -88 2 -133 -13 -31 -19 -35 -53 -35 l-38 0 3 82 c2 62 7 86
19 96 25 18 50 15 67 -10z m-110 -148 c-5 -5 -21 -12 -36 -15 -23 -6 -28 -4
-28 11 0 30 18 84 37 113 l18 26 9 -63 c5 -37 5 -67 0 -72z m37 -70 c-23 -20
-52 -26 -65 -13 -8 8 41 31 69 32 19 0 18 -1 -4 -19z"/>
<path d="M2688 4063 c-43 -27 -53 -57 -53 -157 0 -78 4 -99 27 -148 50 -107
156 -198 230 -198 119 1 165 138 98 293 -65 153 -140 227 -229 227 -25 0 -58
-8 -73 -17z m116 -101 c2 -4 6 -44 7 -87 2 -75 1 -80 -19 -83 -36 -5 -62 31
-62 89 0 28 5 59 10 70 11 19 54 27 64 11z m74 -32 c31 -29 62 -94 62 -130 0
-33 -6 -35 -62 -20 -35 10 -37 13 -43 65 -7 56 -1 105 13 105 5 0 18 -9 30
-20z m13 -190 c8 0 24 -6 34 -14 18 -13 18 -14 -3 -25 -25 -13 -56 0 -104 43
-39 35 -35 38 15 16 23 -11 49 -20 58 -20z"/>
<path d="M7265 3982 c-62 -40 -151 -159 -179 -240 -39 -111 -23 -220 38 -267
60 -46 125 -25 214 69 123 129 158 320 78 421 -30 37 -106 46 -151 17z m86
-128 c17 -20 17 -101 1 -141 -15 -34 -40 -45 -84 -36 l-28 6 6 81 c3 44 10 87
16 94 15 17 73 15 89 -4z m-124 -80 c-3 -40 -10 -70 -18 -75 -23 -14 -49 -10
-49 7 0 17 59 134 68 134 2 0 2 -30 -1 -66z m82 -131 c-23 -32 -42 -43 -71
-43 -37 0 -35 14 5 33 68 31 84 34 66 10z"/>
<path d="M6684 5337 c-229 -103 -391 -239 -462 -387 -55 -115 -75 -196 -74
-305 0 -67 5 -101 20 -136 18 -41 64 -91 93 -101 6 -2 -23 -37 -66 -78 -162
-158 -265 -395 -265 -612 0 -153 34 -242 115 -304 81 -61 224 -40 391 59 307
182 417 280 506 452 31 61 69 152 83 203 23 78 26 107 23 194 -3 88 -7 112
-32 166 -28 60 -102 142 -130 142 -6 0 -17 4 -25 9 -11 7 -8 16 16 48 108 137
168 334 143 469 -36 188 -165 258 -336 181z m141 -111 c100 -42 111 -210 26
-381 -22 -44 -76 -125 -119 -180 -44 -55 -78 -103 -75 -107 2 -5 33 -8 69 -8
97 0 143 -31 186 -125 42 -95 28 -269 -35 -404 -31 -68 -101 -175 -148 -226
-49 -53 -227 -174 -356 -241 -148 -77 -225 -67 -283 37 -19 34 -25 62 -28 130
-12 243 147 530 377 680 27 18 48 37 45 41 -3 4 -22 8 -43 8 -160 0 -213 265
-98 485 58 112 208 235 348 285 65 23 89 24 134 6z"/>
<path d="M6532 5074 c-91 -45 -164 -150 -189 -269 -18 -92 -6 -165 35 -215 24
-28 36 -34 83 -37 47 -4 60 -1 101 26 59 38 130 128 158 200 47 123 30 252
-39 298 -44 30 -85 29 -149 -3z m69 -131 c23 -62 -3 -181 -52 -237 -31 -36
-74 -52 -109 -41 -25 8 -44 75 -35 124 14 72 80 169 125 183 28 9 62 -5 71
-29z"/>
<path d="M6502 4360 c-168 -77 -293 -305 -279 -508 13 -176 111 -249 235 -175
26 15 61 34 77 43 46 22 159 140 182 190 41 90 53 140 53 228 0 75 -4 96 -26
140 -14 29 -40 62 -57 74 -43 31 -128 34 -185 8z m101 -142 c46 -62 31 -217
-32 -334 -62 -114 -145 -149 -193 -81 -18 26 -24 48 -26 112 -4 90 17 172 62
250 49 82 147 110 189 53z"/>
<path d="M3499 4547 l-44 -24 -11 -140 c-17 -204 -41 -271 -109 -311 -19 -11
-17 -14 25 -49 25 -20 92 -84 150 -141 162 -162 266 -217 360 -192 90 24 135
101 134 230 -2 251 -148 549 -311 633 -48 25 -140 22 -194 -6z m167 -126 c110
-50 209 -272 209 -468 0 -83 -2 -94 -24 -117 -68 -72 -190 -2 -322 182 l-62
87 12 61 c6 34 14 102 17 152 7 89 8 91 38 106 41 21 82 20 132 -3z"/>
<path d="M4809 3208 c-44 -93 -99 -163 -155 -196 -24 -15 -44 -29 -44 -32 0
-3 20 -18 45 -33 67 -43 155 -145 200 -232 39 -76 40 -82 40 -174 -1 -108 -18
-157 -75 -205 -27 -22 -41 -26 -93 -26 -61 0 -107 16 -167 56 -19 13 -17 10 5
-10 112 -101 254 -86 312 32 70 143 23 381 -104 530 l-47 54 26 47 c26 46 101
251 95 257 -2 2 -19 -29 -38 -68z"/>
<path d="M4454 2865 c-92 -98 -61 -295 68 -431 125 -132 240 -147 303 -39 32
54 33 121 1 214 -60 177 -175 291 -294 291 -38 0 -50 -5 -78 -35z m198 -111
c47 -30 69 -72 75 -146 l6 -58 -38 0 c-52 0 -141 29 -170 56 -28 25 -43 111
-25 144 24 45 86 47 152 4z m6 -228 c49 -15 62 -23 62 -38 0 -17 -5 -19 -25
-14 -26 7 -125 64 -125 73 0 5 0 5 88 -21z"/>
<path d="M5600 5091 c-72 -22 -146 -88 -193 -171 -60 -107 -76 -258 -34 -321
31 -47 82 -71 130 -64 117 17 257 146 257 236 0 21 -4 41 -10 44 -16 10 -11
25 9 25 32 0 44 26 39 83 -6 77 -35 127 -88 155 -46 23 -68 26 -110 13z m64
-126 c8 -8 18 -36 22 -60 5 -38 2 -55 -22 -103 -29 -57 -29 -57 -79 -60 -112
-7 -149 22 -126 99 14 46 66 117 94 129 35 14 94 11 111 -5z m-87 -255 c28 0
30 -11 2 -28 -23 -15 -51 -9 -91 20 -42 29 -34 38 19 22 25 -8 57 -14 70 -14z"/>
<path d="M5470 3228 c0 -9 70 -190 86 -220 13 -25 12 -28 -17 -49 -59 -42 -99
-94 -143 -184 -98 -201 -85 -404 30 -471 39 -23 53 -26 109 -22 36 2 71 10 77
17 11 10 8 10 -15 2 -92 -35 -189 5 -234 97 -23 47 -25 61 -21 135 4 71 9 92
42 153 42 81 156 201 240 254 l53 34 -66 66 c-36 37 -83 95 -103 130 -21 36
-38 62 -38 58z"/>
<path d="M5661 2880 c-149 -68 -276 -278 -256 -424 18 -139 112 -187 234 -121
68 38 142 118 183 203 30 59 33 76 33 152 0 67 -4 94 -21 124 -39 75 -101 99
-173 66z m76 -126 c23 -23 25 -31 21 -90 -5 -84 -25 -105 -102 -112 l-54 -4 9
43 c6 24 9 67 8 95 -3 61 2 71 44 83 46 13 45 13 74 -15z m-142 -142 c-6 -55
-10 -64 -32 -73 -40 -15 -53 -11 -53 16 0 36 36 124 62 152 l23 25 3 -29 c2
-15 1 -56 -3 -91z m85 -91 c0 -4 -20 -19 -44 -32 -35 -18 -49 -21 -67 -13
l-24 11 25 13 c43 23 110 36 110 21z"/>
</g>
</svg>
